<mxfile host="app.diagrams.net" modified="2023-08-21T02:34:25.684Z" agent="Mozilla/5.0 (X11; Linux x86_64; rv:109.0) Gecko/20100101 Firefox/116.0" etag="mn66BvDs07hbEwQgbR0l" version="21.6.8" type="github">
  <diagram name="Page-1" id="9f46799a-70d6-7492-0946-bef42562c5a5">
    <mxGraphModel dx="1434" dy="759" grid="1" gridSize="10" guides="1" tooltips="1" connect="1" arrows="1" fold="1" page="1" pageScale="1" pageWidth="1100" pageHeight="850" background="none" math="0" shadow="0">
      <root>
        <mxCell id="0" />
        <mxCell id="1" parent="0" />
        <mxCell id="DrYQQO6O7rDfmYpsNT9U-1" value="common" style="swimlane;html=1;fontStyle=1;align=center;verticalAlign=top;childLayout=stackLayout;horizontal=1;startSize=26;horizontalStack=0;resizeParent=1;resizeLast=0;collapsible=1;marginBottom=0;swimlaneFillColor=#ffffff;rounded=0;shadow=0;comic=0;labelBackgroundColor=none;strokeWidth=1;fillColor=#dae8fc;fontFamily=Verdana;fontSize=12;strokeColor=#6c8ebf;" vertex="1" parent="1">
          <mxGeometry x="90" y="83" width="160" height="237" as="geometry" />
        </mxCell>
        <mxCell id="DrYQQO6O7rDfmYpsNT9U-2" value="&lt;div&gt;templates&lt;/div&gt;&lt;div&gt;&amp;nbsp; - library includes&lt;br&gt;&lt;/div&gt;" style="text;html=1;strokeColor=none;fillColor=none;align=left;verticalAlign=top;spacingLeft=4;spacingRight=4;whiteSpace=wrap;overflow=hidden;rotatable=0;points=[[0,0.5],[1,0.5]];portConstraint=eastwest;" vertex="1" parent="DrYQQO6O7rDfmYpsNT9U-1">
          <mxGeometry y="26" width="160" height="34" as="geometry" />
        </mxCell>
        <mxCell id="DrYQQO6O7rDfmYpsNT9U-3" value="" style="line;html=1;strokeWidth=1;fillColor=none;align=left;verticalAlign=middle;spacingTop=-1;spacingLeft=3;spacingRight=3;rotatable=0;labelPosition=right;points=[];portConstraint=eastwest;" vertex="1" parent="DrYQQO6O7rDfmYpsNT9U-1">
          <mxGeometry y="60" width="160" height="18" as="geometry" />
        </mxCell>
        <mxCell id="DrYQQO6O7rDfmYpsNT9U-4" value="&lt;div&gt;Chart.yaml&lt;/div&gt;&lt;div&gt;&amp;nbsp; - dependencies&lt;/div&gt;&lt;div&gt;&amp;nbsp;&amp;nbsp;&amp;nbsp; - deployment&lt;/div&gt;&lt;div&gt;&amp;nbsp;&amp;nbsp;&amp;nbsp; - example&lt;br&gt;&lt;/div&gt;&lt;div&gt;&lt;br&gt;&lt;/div&gt;&lt;div&gt;&lt;br&gt;&lt;/div&gt;" style="text;html=1;strokeColor=none;fillColor=none;align=left;verticalAlign=top;spacingLeft=4;spacingRight=4;whiteSpace=wrap;overflow=hidden;rotatable=0;points=[[0,0.5],[1,0.5]];portConstraint=eastwest;" vertex="1" parent="DrYQQO6O7rDfmYpsNT9U-1">
          <mxGeometry y="78" width="160" height="62" as="geometry" />
        </mxCell>
        <mxCell id="DrYQQO6O7rDfmYpsNT9U-5" value="" style="line;html=1;strokeWidth=1;fillColor=none;align=left;verticalAlign=middle;spacingTop=-1;spacingLeft=3;spacingRight=3;rotatable=0;labelPosition=right;points=[];portConstraint=eastwest;" vertex="1" parent="DrYQQO6O7rDfmYpsNT9U-1">
          <mxGeometry y="140" width="160" height="18" as="geometry" />
        </mxCell>
        <mxCell id="DrYQQO6O7rDfmYpsNT9U-6" value="&lt;div&gt;values.yaml&lt;/div&gt;&lt;div&gt;&amp;nbsp; - global values&lt;/div&gt;&lt;div&gt;&amp;nbsp; - chart specific values&lt;br&gt;&lt;/div&gt;" style="text;html=1;strokeColor=none;fillColor=none;align=left;verticalAlign=top;spacingLeft=4;spacingRight=4;whiteSpace=wrap;overflow=hidden;rotatable=0;points=[[0,0.5],[1,0.5]];portConstraint=eastwest;" vertex="1" parent="DrYQQO6O7rDfmYpsNT9U-1">
          <mxGeometry y="158" width="160" height="66" as="geometry" />
        </mxCell>
        <mxCell id="DrYQQO6O7rDfmYpsNT9U-7" style="edgeStyle=orthogonalEdgeStyle;rounded=0;orthogonalLoop=1;jettySize=auto;html=1;entryX=1.013;entryY=0.661;entryDx=0;entryDy=0;entryPerimeter=0;" edge="1" parent="1" source="DrYQQO6O7rDfmYpsNT9U-8" target="DrYQQO6O7rDfmYpsNT9U-4">
          <mxGeometry relative="1" as="geometry" />
        </mxCell>
        <mxCell id="DrYQQO6O7rDfmYpsNT9U-8" value="charts" style="swimlane;whiteSpace=wrap;html=1;startSize=27;fillColor=#d5e8d4;strokeColor=#82b366;" vertex="1" parent="1">
          <mxGeometry x="420" y="83" width="350" height="237" as="geometry" />
        </mxCell>
        <mxCell id="DrYQQO6O7rDfmYpsNT9U-9" value="deployment" style="swimlane;html=1;fontStyle=1;align=center;verticalAlign=top;childLayout=stackLayout;horizontal=1;startSize=26;horizontalStack=0;resizeParent=1;resizeLast=0;collapsible=1;marginBottom=0;swimlaneFillColor=#ffffff;rounded=0;shadow=0;comic=0;labelBackgroundColor=none;strokeWidth=1;fillColor=#ffe6cc;fontFamily=Verdana;fontSize=12;strokeColor=#d79b00;" vertex="1" parent="DrYQQO6O7rDfmYpsNT9U-8">
          <mxGeometry x="10" y="34" width="160" height="190" as="geometry" />
        </mxCell>
        <mxCell id="DrYQQO6O7rDfmYpsNT9U-10" value="&lt;div&gt;templates&lt;/div&gt;&lt;div&gt;&amp;nbsp; - templated manifests&lt;/div&gt;&lt;div&gt;&lt;br&gt;&lt;/div&gt;" style="text;html=1;strokeColor=none;fillColor=none;align=left;verticalAlign=top;spacingLeft=4;spacingRight=4;whiteSpace=wrap;overflow=hidden;rotatable=0;points=[[0,0.5],[1,0.5]];portConstraint=eastwest;" vertex="1" parent="DrYQQO6O7rDfmYpsNT9U-9">
          <mxGeometry y="26" width="160" height="42" as="geometry" />
        </mxCell>
        <mxCell id="DrYQQO6O7rDfmYpsNT9U-11" value="" style="line;html=1;strokeWidth=1;fillColor=none;align=left;verticalAlign=middle;spacingTop=-1;spacingLeft=3;spacingRight=3;rotatable=0;labelPosition=right;points=[];portConstraint=eastwest;" vertex="1" parent="DrYQQO6O7rDfmYpsNT9U-9">
          <mxGeometry y="68" width="160" height="6" as="geometry" />
        </mxCell>
        <mxCell id="DrYQQO6O7rDfmYpsNT9U-12" value="Chart.yaml" style="text;strokeColor=none;fillColor=none;align=left;verticalAlign=middle;spacingLeft=4;spacingRight=4;overflow=hidden;points=[[0,0.5],[1,0.5]];portConstraint=eastwest;rotatable=0;whiteSpace=wrap;html=1;" vertex="1" parent="DrYQQO6O7rDfmYpsNT9U-9">
          <mxGeometry y="74" width="160" height="30" as="geometry" />
        </mxCell>
        <mxCell id="DrYQQO6O7rDfmYpsNT9U-13" value="" style="line;html=1;strokeWidth=1;fillColor=none;align=left;verticalAlign=middle;spacingTop=-1;spacingLeft=3;spacingRight=3;rotatable=0;labelPosition=right;points=[];portConstraint=eastwest;" vertex="1" parent="DrYQQO6O7rDfmYpsNT9U-9">
          <mxGeometry y="104" width="160" height="18" as="geometry" />
        </mxCell>
        <mxCell id="DrYQQO6O7rDfmYpsNT9U-14" value="&lt;div&gt;valaues.yaml&lt;/div&gt;&lt;div&gt;&amp;nbsp; - global values&lt;br&gt;&lt;/div&gt;&lt;div&gt;&amp;nbsp; - template specific values&lt;br&gt;&lt;/div&gt;" style="text;strokeColor=none;fillColor=none;align=left;verticalAlign=middle;spacingLeft=4;spacingRight=4;overflow=hidden;points=[[0,0.5],[1,0.5]];portConstraint=eastwest;rotatable=0;whiteSpace=wrap;html=1;" vertex="1" parent="DrYQQO6O7rDfmYpsNT9U-9">
          <mxGeometry y="122" width="160" height="68" as="geometry" />
        </mxCell>
        <mxCell id="DrYQQO6O7rDfmYpsNT9U-15" value="example" style="swimlane;html=1;fontStyle=1;align=center;verticalAlign=top;childLayout=stackLayout;horizontal=1;startSize=26;horizontalStack=0;resizeParent=1;resizeLast=0;collapsible=1;marginBottom=0;swimlaneFillColor=#ffffff;rounded=0;shadow=0;comic=0;labelBackgroundColor=none;strokeWidth=1;fillColor=#ffe6cc;fontFamily=Verdana;fontSize=12;strokeColor=#d79b00;" vertex="1" parent="DrYQQO6O7rDfmYpsNT9U-8">
          <mxGeometry x="180" y="34" width="160" height="190" as="geometry" />
        </mxCell>
        <mxCell id="DrYQQO6O7rDfmYpsNT9U-16" value="&lt;div&gt;templates&lt;/div&gt;&lt;div&gt;&amp;nbsp; - templated manifests&lt;/div&gt;&lt;div&gt;&lt;br&gt;&lt;/div&gt;" style="text;html=1;strokeColor=none;fillColor=none;align=left;verticalAlign=top;spacingLeft=4;spacingRight=4;whiteSpace=wrap;overflow=hidden;rotatable=0;points=[[0,0.5],[1,0.5]];portConstraint=eastwest;" vertex="1" parent="DrYQQO6O7rDfmYpsNT9U-15">
          <mxGeometry y="26" width="160" height="42" as="geometry" />
        </mxCell>
        <mxCell id="DrYQQO6O7rDfmYpsNT9U-17" value="" style="line;html=1;strokeWidth=1;fillColor=none;align=left;verticalAlign=middle;spacingTop=-1;spacingLeft=3;spacingRight=3;rotatable=0;labelPosition=right;points=[];portConstraint=eastwest;" vertex="1" parent="DrYQQO6O7rDfmYpsNT9U-15">
          <mxGeometry y="68" width="160" height="6" as="geometry" />
        </mxCell>
        <mxCell id="DrYQQO6O7rDfmYpsNT9U-18" value="Chart.yaml" style="text;strokeColor=none;fillColor=none;align=left;verticalAlign=middle;spacingLeft=4;spacingRight=4;overflow=hidden;points=[[0,0.5],[1,0.5]];portConstraint=eastwest;rotatable=0;whiteSpace=wrap;html=1;" vertex="1" parent="DrYQQO6O7rDfmYpsNT9U-15">
          <mxGeometry y="74" width="160" height="30" as="geometry" />
        </mxCell>
        <mxCell id="DrYQQO6O7rDfmYpsNT9U-19" value="" style="line;html=1;strokeWidth=1;fillColor=none;align=left;verticalAlign=middle;spacingTop=-1;spacingLeft=3;spacingRight=3;rotatable=0;labelPosition=right;points=[];portConstraint=eastwest;" vertex="1" parent="DrYQQO6O7rDfmYpsNT9U-15">
          <mxGeometry y="104" width="160" height="18" as="geometry" />
        </mxCell>
        <mxCell id="DrYQQO6O7rDfmYpsNT9U-20" value="&lt;div&gt;valaues.yaml&lt;/div&gt;&lt;div&gt;&amp;nbsp; - global values&lt;br&gt;&lt;/div&gt;&lt;div&gt;&amp;nbsp; - template specific values&lt;br&gt;&lt;/div&gt;" style="text;strokeColor=none;fillColor=none;align=left;verticalAlign=middle;spacingLeft=4;spacingRight=4;overflow=hidden;points=[[0,0.5],[1,0.5]];portConstraint=eastwest;rotatable=0;whiteSpace=wrap;html=1;" vertex="1" parent="DrYQQO6O7rDfmYpsNT9U-15">
          <mxGeometry y="122" width="160" height="68" as="geometry" />
        </mxCell>
        <mxCell id="DrYQQO6O7rDfmYpsNT9U-21" style="edgeStyle=orthogonalEdgeStyle;rounded=0;orthogonalLoop=1;jettySize=auto;html=1;entryX=0.5;entryY=0;entryDx=0;entryDy=0;" edge="1" parent="1" source="DrYQQO6O7rDfmYpsNT9U-22" target="DrYQQO6O7rDfmYpsNT9U-25">
          <mxGeometry relative="1" as="geometry" />
        </mxCell>
        <mxCell id="DrYQQO6O7rDfmYpsNT9U-22" value="&lt;div&gt;helm &lt;br&gt;&lt;/div&gt;&lt;div&gt;(cm-)push&lt;br&gt;&lt;/div&gt;" style="rhombus;whiteSpace=wrap;html=1;" vertex="1" parent="1">
          <mxGeometry x="120" y="390" width="100" height="100" as="geometry" />
        </mxCell>
        <mxCell id="DrYQQO6O7rDfmYpsNT9U-23" style="edgeStyle=orthogonalEdgeStyle;rounded=0;orthogonalLoop=1;jettySize=auto;html=1;entryX=-0.006;entryY=0.333;entryDx=0;entryDy=0;entryPerimeter=0;" edge="1" parent="1" source="DrYQQO6O7rDfmYpsNT9U-25" target="DrYQQO6O7rDfmYpsNT9U-33">
          <mxGeometry relative="1" as="geometry">
            <mxPoint x="390" y="570" as="targetPoint" />
          </mxGeometry>
        </mxCell>
        <mxCell id="DrYQQO6O7rDfmYpsNT9U-24" style="edgeStyle=orthogonalEdgeStyle;rounded=0;orthogonalLoop=1;jettySize=auto;html=1;entryX=0;entryY=0.5;entryDx=0;entryDy=0;" edge="1" parent="1" source="DrYQQO6O7rDfmYpsNT9U-25" target="DrYQQO6O7rDfmYpsNT9U-36">
          <mxGeometry relative="1" as="geometry" />
        </mxCell>
        <mxCell id="DrYQQO6O7rDfmYpsNT9U-25" value="chart museum" style="swimlane;whiteSpace=wrap;html=1;startSize=27;fillColor=#e1d5e7;strokeColor=#9673a6;" vertex="1" parent="1">
          <mxGeometry x="65" y="520" width="210" height="100" as="geometry" />
        </mxCell>
        <mxCell id="DrYQQO6O7rDfmYpsNT9U-26" value="common-charts 1.0.0" style="text;strokeColor=none;fillColor=none;align=left;verticalAlign=middle;spacingLeft=4;spacingRight=4;overflow=hidden;points=[[0,0.5],[1,0.5]];portConstraint=eastwest;rotatable=0;whiteSpace=wrap;html=1;" vertex="1" parent="DrYQQO6O7rDfmYpsNT9U-25">
          <mxGeometry y="30" width="210" height="30" as="geometry" />
        </mxCell>
        <mxCell id="DrYQQO6O7rDfmYpsNT9U-27" value="example-service 1.0.0" style="text;strokeColor=none;fillColor=none;align=left;verticalAlign=middle;spacingLeft=4;spacingRight=4;overflow=hidden;points=[[0,0.5],[1,0.5]];portConstraint=eastwest;rotatable=0;whiteSpace=wrap;html=1;" vertex="1" parent="DrYQQO6O7rDfmYpsNT9U-25">
          <mxGeometry y="50" width="140" height="30" as="geometry" />
        </mxCell>
        <mxCell id="DrYQQO6O7rDfmYpsNT9U-28" style="edgeStyle=orthogonalEdgeStyle;rounded=0;orthogonalLoop=1;jettySize=auto;html=1;entryX=0.5;entryY=0;entryDx=0;entryDy=0;" edge="1" parent="1" target="DrYQQO6O7rDfmYpsNT9U-22">
          <mxGeometry relative="1" as="geometry">
            <mxPoint x="170" y="340" as="sourcePoint" />
          </mxGeometry>
        </mxCell>
        <mxCell id="DrYQQO6O7rDfmYpsNT9U-29" value="common-charts" style="swimlane;whiteSpace=wrap;html=1;fillColor=#f8cecc;strokeColor=#b85450;" vertex="1" parent="1">
          <mxGeometry x="50" y="40" width="760" height="300" as="geometry" />
        </mxCell>
        <mxCell id="DrYQQO6O7rDfmYpsNT9U-30" value="example-service" style="swimlane;html=1;fontStyle=1;align=center;verticalAlign=top;childLayout=stackLayout;horizontal=1;startSize=26;horizontalStack=0;resizeParent=1;resizeLast=0;collapsible=1;marginBottom=0;swimlaneFillColor=#ffffff;rounded=0;shadow=0;comic=0;labelBackgroundColor=none;strokeWidth=1;fillColor=#dae8fc;fontFamily=Verdana;fontSize=12;strokeColor=#6c8ebf;" vertex="1" parent="1">
          <mxGeometry x="370" y="420" width="170" height="194" as="geometry" />
        </mxCell>
        <mxCell id="DrYQQO6O7rDfmYpsNT9U-31" value="&lt;div&gt;Chart.yaml&lt;/div&gt;&lt;div&gt;&amp;nbsp; - dependencies&lt;/div&gt;&lt;div&gt;&amp;nbsp;&amp;nbsp;&amp;nbsp; - common-charts&lt;/div&gt;&lt;div&gt;&amp;nbsp;&amp;nbsp;&amp;nbsp; - version&lt;/div&gt;&lt;div&gt;&amp;nbsp;&amp;nbsp;&amp;nbsp; - example&lt;br&gt;&lt;/div&gt;&lt;div&gt;&lt;br&gt;&lt;/div&gt;" style="text;html=1;strokeColor=none;fillColor=none;align=left;verticalAlign=top;spacingLeft=4;spacingRight=4;whiteSpace=wrap;overflow=hidden;rotatable=0;points=[[0,0.5],[1,0.5]];portConstraint=eastwest;" vertex="1" parent="DrYQQO6O7rDfmYpsNT9U-30">
          <mxGeometry y="26" width="170" height="84" as="geometry" />
        </mxCell>
        <mxCell id="DrYQQO6O7rDfmYpsNT9U-32" value="" style="line;html=1;strokeWidth=1;fillColor=none;align=left;verticalAlign=middle;spacingTop=-1;spacingLeft=3;spacingRight=3;rotatable=0;labelPosition=right;points=[];portConstraint=eastwest;" vertex="1" parent="DrYQQO6O7rDfmYpsNT9U-30">
          <mxGeometry y="110" width="170" height="18" as="geometry" />
        </mxCell>
        <mxCell id="DrYQQO6O7rDfmYpsNT9U-33" value="&lt;div&gt;values.yaml&lt;/div&gt;&lt;div&gt;&amp;nbsp; - global values&lt;/div&gt;&lt;div&gt;&amp;nbsp; - chart specific values&lt;br&gt;&lt;/div&gt;" style="text;html=1;strokeColor=none;fillColor=none;align=left;verticalAlign=top;spacingLeft=4;spacingRight=4;whiteSpace=wrap;overflow=hidden;rotatable=0;points=[[0,0.5],[1,0.5]];portConstraint=eastwest;" vertex="1" parent="DrYQQO6O7rDfmYpsNT9U-30">
          <mxGeometry y="128" width="170" height="66" as="geometry" />
        </mxCell>
        <mxCell id="DrYQQO6O7rDfmYpsNT9U-34" style="edgeStyle=orthogonalEdgeStyle;rounded=0;orthogonalLoop=1;jettySize=auto;html=1;entryX=1;entryY=0.5;entryDx=0;entryDy=0;" edge="1" parent="1" target="DrYQQO6O7rDfmYpsNT9U-22">
          <mxGeometry relative="1" as="geometry">
            <mxPoint x="370" y="440" as="sourcePoint" />
          </mxGeometry>
        </mxCell>
        <mxCell id="DrYQQO6O7rDfmYpsNT9U-35" style="edgeStyle=orthogonalEdgeStyle;rounded=0;orthogonalLoop=1;jettySize=auto;html=1;entryX=0.5;entryY=1;entryDx=0;entryDy=0;" edge="1" parent="1" source="DrYQQO6O7rDfmYpsNT9U-36" target="DrYQQO6O7rDfmYpsNT9U-37">
          <mxGeometry relative="1" as="geometry">
            <mxPoint x="370" y="705" as="targetPoint" />
          </mxGeometry>
        </mxCell>
        <mxCell id="DrYQQO6O7rDfmYpsNT9U-36" value="&lt;div&gt;helm&lt;/div&gt;&lt;div&gt;install&lt;br&gt;&lt;/div&gt;" style="rhombus;whiteSpace=wrap;html=1;" vertex="1" parent="1">
          <mxGeometry x="205" y="660" width="95" height="90" as="geometry" />
        </mxCell>
        <mxCell id="DrYQQO6O7rDfmYpsNT9U-37" value="Kubernetes Cluster" style="swimlane;whiteSpace=wrap;html=1;fillColor=#e1d5e7;strokeColor=#9673a6;" vertex="1" parent="1">
          <mxGeometry x="570" y="420" width="200" height="200" as="geometry" />
        </mxCell>
        <mxCell id="DrYQQO6O7rDfmYpsNT9U-38" value="&lt;div&gt;- deployment&lt;/div&gt;&lt;div&gt;&lt;br&gt;&lt;/div&gt;&lt;div&gt;- service&lt;/div&gt;&lt;div&gt;&lt;br&gt;&lt;/div&gt;&lt;div&gt;- virtualservice&lt;/div&gt;&lt;div&gt;&lt;br&gt;&lt;/div&gt;&lt;div&gt;- persistentVolumeClaim&lt;br&gt;&lt;/div&gt;&lt;div&gt;&lt;br&gt;&lt;/div&gt;" style="text;strokeColor=none;fillColor=none;align=left;verticalAlign=middle;spacingLeft=4;spacingRight=4;overflow=hidden;points=[[0,0.5],[1,0.5]];portConstraint=eastwest;rotatable=0;whiteSpace=wrap;html=1;" vertex="1" parent="DrYQQO6O7rDfmYpsNT9U-37">
          <mxGeometry x="10" y="40" width="180" height="120" as="geometry" />
        </mxCell>
      </root>
    </mxGraphModel>
  </diagram>
</mxfile>
